<svg width="154" height="43" viewBox="0 0 154 43" fill="none" xmlns="http://www.w3.org/2000/svg">
<rect width="154" height="43" fill="black"/>
<path d="M59.5088 10.9609V33H54.9678V10.9609H59.5088ZM72.708 10.9609L63.9741 21.8442L58.9336 27.2632L58.1162 22.9644L61.522 18.3022L67.1377 10.9609H72.708ZM67.5464 33L61.0527 22.813L64.4131 19.9976L72.9199 33H67.5464ZM79.5044 10.9609V33H74.9785V10.9609H79.5044ZM90.5239 33H85.7256L85.7559 29.458H90.5239C91.7147 29.458 92.7188 29.1906 93.5361 28.6558C94.3535 28.1108 94.9691 27.3187 95.3828 26.2793C95.8066 25.2399 96.0186 23.9836 96.0186 22.5103V21.4355C96.0186 20.3053 95.8975 19.3114 95.6553 18.4536C95.4232 17.5959 95.075 16.8743 94.6108 16.2891C94.1466 15.7038 93.5765 15.2648 92.9004 14.9722C92.2243 14.6694 91.4473 14.5181 90.5693 14.5181H85.6348V10.9609H90.5693C92.0426 10.9609 93.3898 11.2132 94.6108 11.7178C95.842 12.2122 96.9066 12.9237 97.8047 13.8521C98.7028 14.7804 99.394 15.8905 99.8784 17.1821C100.373 18.4637 100.62 19.8916 100.62 21.4658V22.5103C100.62 24.0744 100.373 25.5023 99.8784 26.7939C99.394 28.0856 98.7028 29.1956 97.8047 30.124C96.9167 31.0423 95.8521 31.7537 94.6108 32.2583C93.3797 32.7528 92.0174 33 90.5239 33ZM88.2988 10.9609V33H83.7578V10.9609H88.2988Z" fill="white"/>
</svg>
