<svg width="154" height="43" viewBox="0 0 154 43" fill="none" xmlns="http://www.w3.org/2000/svg">
<rect width="154" height="43" fill="black"/>
<path d="M45.0415 10.9609H48.8862L54.5474 27.1421L60.2085 10.9609H64.0532L56.0913 33H53.0034L45.0415 10.9609ZM42.9678 10.9609H46.7974L47.4937 26.7334V33H42.9678V10.9609ZM62.2974 10.9609H66.1421V33H61.6011V26.7334L62.2974 10.9609ZM79.3564 14.73L73.3623 33H68.5337L76.7227 10.9609H79.7954L79.3564 14.73ZM84.3364 33L78.3271 14.73L77.8428 10.9609H80.9458L89.1802 33H84.3364ZM84.064 24.7959V28.353H72.4238V24.7959H84.064ZM109.161 10.9609V33H104.62L95.7646 18.2266V33H91.2236V10.9609H95.7646L104.635 25.7495V10.9609H109.161Z" fill="white"/>
</svg>
