<svg width="624" height="226" viewBox="0 0 624 226" fill="none" xmlns="http://www.w3.org/2000/svg">
<rect width="624" height="226" rx="10" fill="#C4C4C4"/>
<rect width="624" height="226" rx="10" fill="black"/>
<path d="M270.424 111.838V112.849C270.424 114.47 270.204 115.925 269.765 117.214C269.325 118.503 268.705 119.602 267.904 120.51C267.104 121.408 266.146 122.097 265.033 122.575C263.93 123.054 262.704 123.293 261.356 123.293C260.019 123.293 258.793 123.054 257.68 122.575C256.576 122.097 255.619 121.408 254.809 120.51C253.998 119.602 253.368 118.503 252.919 117.214C252.479 115.925 252.26 114.47 252.26 112.849V111.838C252.26 110.207 252.479 108.752 252.919 107.473C253.358 106.184 253.979 105.085 254.779 104.177C255.59 103.269 256.547 102.575 257.65 102.097C258.764 101.618 259.989 101.379 261.327 101.379C262.675 101.379 263.9 101.618 265.004 102.097C266.117 102.575 267.074 103.269 267.875 104.177C268.686 105.085 269.311 106.184 269.75 107.473C270.199 108.752 270.424 110.207 270.424 111.838ZM265.985 112.849V111.809C265.985 110.676 265.883 109.68 265.678 108.82C265.473 107.961 265.17 107.238 264.77 106.652C264.369 106.066 263.881 105.627 263.305 105.334C262.729 105.031 262.069 104.88 261.327 104.88C260.585 104.88 259.926 105.031 259.35 105.334C258.783 105.627 258.3 106.066 257.899 106.652C257.509 107.238 257.211 107.961 257.006 108.82C256.801 109.68 256.698 110.676 256.698 111.809V112.849C256.698 113.972 256.801 114.968 257.006 115.837C257.211 116.696 257.514 117.424 257.914 118.02C258.314 118.605 258.803 119.05 259.379 119.353C259.955 119.655 260.614 119.807 261.356 119.807C262.099 119.807 262.758 119.655 263.334 119.353C263.91 119.05 264.394 118.605 264.784 118.02C265.175 117.424 265.473 116.696 265.678 115.837C265.883 114.968 265.985 113.972 265.985 112.849ZM273.588 101.672H281.542C283.173 101.672 284.574 101.916 285.746 102.404C286.928 102.893 287.836 103.615 288.471 104.572C289.105 105.529 289.423 106.706 289.423 108.103C289.423 109.245 289.228 110.227 288.837 111.047C288.456 111.857 287.914 112.536 287.211 113.083C286.518 113.62 285.702 114.05 284.765 114.372L283.373 115.104H276.459L276.43 111.677H281.571C282.343 111.677 282.982 111.54 283.49 111.267C283.998 110.993 284.379 110.612 284.633 110.124C284.896 109.636 285.028 109.069 285.028 108.425C285.028 107.741 284.901 107.15 284.647 106.652C284.394 106.154 284.008 105.773 283.49 105.51C282.973 105.246 282.323 105.114 281.542 105.114H277.982V123H273.588V101.672ZM285.512 123L280.648 113.493L285.292 113.464L290.214 122.795V123H285.512ZM299.354 123H294.711L294.74 119.572H299.354C300.507 119.572 301.479 119.313 302.27 118.796C303.061 118.269 303.656 117.502 304.057 116.496C304.467 115.49 304.672 114.274 304.672 112.849V111.809C304.672 110.715 304.555 109.753 304.32 108.923C304.096 108.093 303.759 107.395 303.31 106.828C302.86 106.262 302.309 105.837 301.654 105.554C301 105.261 300.248 105.114 299.398 105.114H294.623V101.672H299.398C300.824 101.672 302.128 101.916 303.31 102.404C304.501 102.883 305.531 103.571 306.4 104.47C307.27 105.368 307.938 106.442 308.407 107.692C308.886 108.933 309.125 110.314 309.125 111.838V112.849C309.125 114.362 308.886 115.744 308.407 116.994C307.938 118.244 307.27 119.318 306.4 120.217C305.541 121.105 304.511 121.794 303.31 122.282C302.118 122.761 300.8 123 299.354 123ZM297.201 101.672V123H292.807V101.672H297.201ZM326.63 119.572V123H315.277V119.572H326.63ZM316.713 101.672V123H312.318V101.672H316.713ZM325.15 110.358V113.698H315.277V110.358H325.15ZM326.615 101.672V105.114H315.277V101.672H326.615ZM329.193 101.672H337.147C338.778 101.672 340.18 101.916 341.352 102.404C342.533 102.893 343.441 103.615 344.076 104.572C344.711 105.529 345.028 106.706 345.028 108.103C345.028 109.245 344.833 110.227 344.442 111.047C344.062 111.857 343.52 112.536 342.816 113.083C342.123 113.62 341.308 114.05 340.37 114.372L338.979 115.104H332.064L332.035 111.677H337.177C337.948 111.677 338.588 111.54 339.096 111.267C339.604 110.993 339.984 110.612 340.238 110.124C340.502 109.636 340.634 109.069 340.634 108.425C340.634 107.741 340.507 107.15 340.253 106.652C339.999 106.154 339.613 105.773 339.096 105.51C338.578 105.246 337.929 105.114 337.147 105.114H333.588V123H329.193V101.672ZM341.117 123L336.254 113.493L340.897 113.464L345.819 122.795V123H341.117ZM359.516 117.419C359.516 117.038 359.457 116.696 359.34 116.394C359.232 116.081 359.027 115.798 358.725 115.544C358.422 115.28 357.997 115.021 357.45 114.768C356.903 114.514 356.195 114.25 355.326 113.977C354.359 113.664 353.441 113.312 352.572 112.922C351.713 112.531 350.951 112.077 350.287 111.56C349.633 111.032 349.115 110.422 348.734 109.729C348.363 109.035 348.178 108.229 348.178 107.312C348.178 106.423 348.373 105.617 348.764 104.895C349.154 104.162 349.701 103.537 350.404 103.02C351.107 102.492 351.938 102.087 352.895 101.804C353.861 101.521 354.921 101.379 356.073 101.379C357.646 101.379 359.018 101.662 360.189 102.229C361.361 102.795 362.27 103.571 362.914 104.558C363.568 105.544 363.896 106.672 363.896 107.941H359.53C359.53 107.316 359.398 106.77 359.135 106.301C358.881 105.822 358.49 105.446 357.963 105.173C357.445 104.899 356.791 104.763 356 104.763C355.238 104.763 354.604 104.88 354.096 105.114C353.588 105.339 353.207 105.646 352.953 106.037C352.699 106.418 352.572 106.848 352.572 107.326C352.572 107.688 352.66 108.015 352.836 108.308C353.021 108.601 353.295 108.874 353.656 109.128C354.018 109.382 354.462 109.621 354.989 109.846C355.517 110.07 356.127 110.29 356.82 110.505C357.982 110.856 359.003 111.252 359.882 111.691C360.771 112.131 361.513 112.624 362.108 113.171C362.704 113.718 363.153 114.338 363.456 115.031C363.759 115.725 363.91 116.511 363.91 117.39C363.91 118.317 363.729 119.147 363.368 119.88C363.007 120.612 362.484 121.232 361.801 121.74C361.117 122.248 360.302 122.634 359.354 122.897C358.407 123.161 357.348 123.293 356.176 123.293C355.121 123.293 354.081 123.156 353.056 122.883C352.03 122.6 351.098 122.175 350.258 121.608C349.428 121.042 348.764 120.319 348.266 119.44C347.768 118.562 347.519 117.521 347.519 116.32H351.928C351.928 116.984 352.03 117.546 352.235 118.005C352.44 118.464 352.729 118.835 353.1 119.118C353.48 119.401 353.93 119.606 354.447 119.733C354.975 119.86 355.551 119.924 356.176 119.924C356.938 119.924 357.562 119.816 358.051 119.602C358.549 119.387 358.915 119.089 359.149 118.708C359.394 118.327 359.516 117.897 359.516 117.419Z" fill="white"/>
<path d="M267.904 120.51L268.651 121.175L268.654 121.171L267.904 120.51ZM265.033 122.575L264.638 121.656L264.635 121.658L265.033 122.575ZM257.68 122.575L257.282 123.493L257.285 123.494L257.68 122.575ZM254.809 120.51L254.063 121.176L254.066 121.18L254.809 120.51ZM252.919 117.214L251.972 117.537L251.975 117.543L252.919 117.214ZM252.919 107.473L253.865 107.798L253.865 107.795L252.919 107.473ZM254.779 104.177L254.033 103.511L254.029 103.515L254.779 104.177ZM257.65 102.097L257.255 101.178L257.253 101.179L257.65 102.097ZM265.004 102.097L264.606 103.014L264.609 103.015L265.004 102.097ZM267.875 104.177L267.125 104.838L267.129 104.843L267.875 104.177ZM269.75 107.473L268.803 107.795L268.806 107.804L269.75 107.473ZM265.678 108.82L264.705 109.052L265.678 108.82ZM263.305 105.334L262.84 106.219L262.851 106.225L263.305 105.334ZM259.35 105.334L259.809 106.222L259.815 106.219L259.35 105.334ZM257.899 106.652L257.074 106.088L257.067 106.098L257.899 106.652ZM257.006 115.837L256.033 116.067L256.033 116.069L257.006 115.837ZM257.914 118.02L257.084 118.577L257.088 118.584L257.914 118.02ZM264.784 118.02L265.616 118.574L265.62 118.568L264.784 118.02ZM265.678 115.837L266.65 116.069L266.651 116.067L265.678 115.837ZM269.424 111.838V112.849H271.424V111.838H269.424ZM269.424 112.849C269.424 114.38 269.216 115.724 268.818 116.891L270.711 117.537C271.192 116.126 271.424 114.559 271.424 112.849H269.424ZM268.818 116.891C268.416 118.071 267.858 119.051 267.154 119.848L268.654 121.171C269.553 120.152 270.234 118.935 270.711 117.537L268.818 116.891ZM267.158 119.844C266.455 120.633 265.618 121.235 264.638 121.656L265.428 123.494C266.675 122.958 267.752 122.183 268.651 121.175L267.158 119.844ZM264.635 121.658C263.672 122.076 262.584 122.293 261.356 122.293V124.293C262.824 124.293 264.188 124.032 265.431 123.493L264.635 121.658ZM261.356 122.293C260.14 122.293 259.051 122.076 258.075 121.656L257.285 123.494C258.535 124.031 259.897 124.293 261.356 124.293V122.293ZM258.078 121.658C257.106 121.237 256.266 120.633 255.551 119.84L254.066 121.18C254.972 122.184 256.046 122.957 257.282 123.493L258.078 121.658ZM255.555 119.844C254.842 119.045 254.274 118.065 253.863 116.885L251.975 117.543C252.462 118.941 253.154 120.158 254.063 121.176L255.555 119.844ZM253.865 116.891C253.467 115.724 253.26 114.38 253.26 112.849H251.26C251.26 114.559 251.492 116.126 251.972 117.537L253.865 116.891ZM253.26 112.849V111.838H251.26V112.849H253.26ZM253.26 111.838C253.26 110.296 253.468 108.953 253.865 107.798L251.973 107.148C251.491 108.551 251.26 110.119 251.26 111.838H253.26ZM253.865 107.795C254.268 106.615 254.826 105.636 255.529 104.838L254.029 103.515C253.131 104.534 252.449 105.752 251.972 107.15L253.865 107.795ZM255.525 104.843C256.241 104.041 257.079 103.434 258.048 103.014L257.253 101.179C256.014 101.716 254.939 102.496 254.033 103.511L255.525 104.843ZM258.045 103.015C259.021 102.596 260.111 102.379 261.327 102.379V100.379C259.868 100.379 258.506 100.64 257.255 101.178L258.045 103.015ZM261.327 102.379C262.554 102.379 263.642 102.596 264.606 103.014L265.402 101.179C264.158 100.64 262.795 100.379 261.327 100.379V102.379ZM264.609 103.015C265.586 103.436 266.422 104.041 267.125 104.838L268.625 103.515C267.726 102.496 266.648 101.715 265.399 101.178L264.609 103.015ZM267.129 104.843C267.84 105.64 268.402 106.618 268.803 107.795L270.697 107.15C270.219 105.749 269.531 104.53 268.621 103.511L267.129 104.843ZM268.806 107.804C269.212 108.958 269.424 110.298 269.424 111.838H271.424C271.424 110.116 271.187 108.546 270.694 107.141L268.806 107.804ZM266.985 112.849V111.809H264.985V112.849H266.985ZM266.985 111.809C266.985 110.618 266.878 109.541 266.65 108.588L264.705 109.052C264.888 109.818 264.985 110.733 264.985 111.809H266.985ZM266.65 108.588C266.424 107.638 266.079 106.796 265.595 106.088L263.944 107.217C264.261 107.68 264.522 108.284 264.705 109.052L266.65 108.588ZM265.595 106.088C265.11 105.378 264.498 104.819 263.758 104.443L262.851 106.225C263.264 106.435 263.629 106.755 263.944 107.217L265.595 106.088ZM263.77 104.449C263.031 104.061 262.208 103.88 261.327 103.88V105.88C261.93 105.88 262.426 106.002 262.84 106.219L263.77 104.449ZM261.327 103.88C260.446 103.88 259.623 104.061 258.884 104.449L259.815 106.219C260.228 106.002 260.724 105.88 261.327 105.88V103.88ZM258.89 104.446C258.161 104.823 257.557 105.381 257.074 106.088L258.725 107.217C259.043 106.752 259.406 106.431 259.809 106.222L258.89 104.446ZM257.067 106.098C256.597 106.803 256.259 107.642 256.033 108.588L257.979 109.052C258.163 108.28 258.421 107.673 258.731 107.207L257.067 106.098ZM256.033 108.588C255.806 109.541 255.698 110.618 255.698 111.809H257.698C257.698 110.733 257.796 109.818 257.979 109.052L256.033 108.588ZM255.698 111.809V112.849H257.698V111.809H255.698ZM255.698 112.849C255.698 114.03 255.806 115.106 256.033 116.067L257.979 115.607C257.796 114.83 257.698 113.913 257.698 112.849H255.698ZM256.033 116.069C256.26 117.019 256.604 117.863 257.084 118.577L258.744 117.462C258.424 116.985 258.162 116.374 257.979 115.605L256.033 116.069ZM257.088 118.584C257.572 119.292 258.18 119.852 258.914 120.238L259.844 118.467C259.425 118.247 259.056 117.919 258.74 117.455L257.088 118.584ZM258.914 120.238C259.652 120.626 260.475 120.807 261.356 120.807V118.807C260.753 118.807 260.258 118.685 259.844 118.467L258.914 120.238ZM261.356 120.807C262.238 120.807 263.06 120.626 263.799 120.238L262.869 118.467C262.455 118.685 261.96 118.807 261.356 118.807V120.807ZM263.799 120.238C264.535 119.851 265.141 119.288 265.616 118.574L263.952 117.465C263.646 117.923 263.285 118.249 262.869 118.467L263.799 120.238ZM265.62 118.568C266.088 117.855 266.425 117.015 266.65 116.069L264.705 115.605C264.521 116.378 264.262 116.992 263.948 117.471L265.62 118.568ZM266.651 116.067C266.878 115.106 266.985 114.03 266.985 112.849H264.985C264.985 113.913 264.888 114.83 264.704 115.607L266.651 116.067ZM273.588 101.672V100.672H272.588V101.672H273.588ZM285.746 102.404L285.361 103.327L285.364 103.328L285.746 102.404ZM288.837 111.047L287.934 110.617L287.932 110.622L288.837 111.047ZM287.211 113.083L287.823 113.874L287.825 113.872L287.211 113.083ZM284.765 114.372L284.44 113.426L284.367 113.451L284.299 113.487L284.765 114.372ZM283.373 115.104V116.104H283.62L283.839 115.989L283.373 115.104ZM276.459 115.104L275.459 115.113L275.467 116.104H276.459V115.104ZM276.43 111.677V110.677H275.421L275.43 111.685L276.43 111.677ZM284.633 110.124L283.753 109.649L283.749 109.656L283.746 109.663L284.633 110.124ZM277.982 105.114V104.114H276.982V105.114H277.982ZM277.982 123V124H278.982V123H277.982ZM273.588 123H272.588V124H273.588V123ZM285.512 123L284.621 123.455L284.9 124H285.512V123ZM280.648 113.493L280.642 112.493L279.019 112.503L279.758 113.949L280.648 113.493ZM285.292 113.464L286.176 112.997L285.893 112.46L285.286 112.464L285.292 113.464ZM290.214 122.795H291.214V122.547L291.098 122.328L290.214 122.795ZM290.214 123V124H291.214V123H290.214ZM273.588 102.672H281.542V100.672H273.588V102.672ZM281.542 102.672C283.077 102.672 284.341 102.902 285.361 103.327L286.131 101.481C284.808 100.93 283.269 100.672 281.542 100.672V102.672ZM285.364 103.328C286.383 103.75 287.125 104.353 287.637 105.125L289.304 104.02C288.547 102.878 287.472 102.036 286.128 101.48L285.364 103.328ZM287.637 105.125C288.142 105.886 288.423 106.86 288.423 108.103H290.423C290.423 106.552 290.069 105.173 289.304 104.02L287.637 105.125ZM288.423 108.103C288.423 109.134 288.246 109.961 287.934 110.617L289.74 111.477C290.209 110.492 290.423 109.357 290.423 108.103H288.423ZM287.932 110.622C287.618 111.29 287.175 111.844 286.597 112.294L287.825 113.872C288.653 113.228 289.294 112.424 289.742 111.472L287.932 110.622ZM286.599 112.292C286.002 112.754 285.287 113.135 284.44 113.426L285.09 115.318C286.118 114.964 287.033 114.486 287.823 113.874L286.599 112.292ZM284.299 113.487L282.907 114.22L283.839 115.989L285.23 115.257L284.299 113.487ZM283.373 114.104H276.459V116.104H283.373V114.104ZM277.459 115.096L277.43 111.668L275.43 111.685L275.459 115.113L277.459 115.096ZM276.43 112.677H281.571V110.677H276.43V112.677ZM281.571 112.677C282.455 112.677 283.27 112.521 283.964 112.147L283.016 110.386C282.695 110.559 282.231 110.677 281.571 110.677V112.677ZM283.964 112.147C284.64 111.783 285.169 111.26 285.52 110.585L283.746 109.663C283.589 109.964 283.356 110.203 283.016 110.386L283.964 112.147ZM285.513 110.599C285.867 109.943 286.028 109.208 286.028 108.425H284.028C284.028 108.93 283.926 109.329 283.753 109.649L285.513 110.599ZM286.028 108.425C286.028 107.618 285.878 106.865 285.538 106.198L283.757 107.107C283.925 107.436 284.028 107.864 284.028 108.425H286.028ZM285.538 106.198C285.185 105.504 284.642 104.974 283.944 104.619L283.036 106.401C283.374 106.573 283.602 106.804 283.757 107.107L285.538 106.198ZM283.944 104.619C283.246 104.263 282.429 104.114 281.542 104.114V106.114C282.217 106.114 282.699 106.229 283.036 106.401L283.944 104.619ZM281.542 104.114H277.982V106.114H281.542V104.114ZM276.982 105.114V123H278.982V105.114H276.982ZM277.982 122H273.588V124H277.982V122ZM274.588 123V101.672H272.588V123H274.588ZM286.402 122.545L281.539 113.038L279.758 113.949L284.621 123.455L286.402 122.545ZM280.655 114.493L285.298 114.464L285.286 112.464L280.642 112.493L280.655 114.493ZM284.407 113.93L289.329 123.261L291.098 122.328L286.176 112.997L284.407 113.93ZM289.214 122.795V123H291.214V122.795H289.214ZM290.214 122H285.512V124H290.214V122ZM294.711 123L293.711 122.991L293.702 124H294.711V123ZM294.74 119.572V118.572H293.749L293.74 119.564L294.74 119.572ZM302.27 118.796L302.817 119.633L302.824 119.628L302.27 118.796ZM304.057 116.496L303.131 116.118L303.128 116.126L304.057 116.496ZM304.32 108.923L303.355 109.184L303.358 109.195L304.32 108.923ZM303.31 106.828L304.093 106.207L303.31 106.828ZM301.654 105.554L301.246 106.466L301.257 106.471L301.654 105.554ZM294.623 105.114H293.623V106.114H294.623V105.114ZM294.623 101.672V100.672H293.623V101.672H294.623ZM303.31 102.404L302.928 103.329L302.937 103.332L303.31 102.404ZM308.407 107.692L307.471 108.044L307.474 108.052L308.407 107.692ZM308.407 116.994L307.473 116.637L307.471 116.643L308.407 116.994ZM306.4 120.217L305.682 119.522L305.682 119.522L306.4 120.217ZM303.31 122.282L303.682 123.21L303.686 123.209L303.31 122.282ZM297.201 101.672H298.201V100.672H297.201V101.672ZM297.201 123V124H298.201V123H297.201ZM292.807 123H291.807V124H292.807V123ZM292.807 101.672V100.672H291.807V101.672H292.807ZM299.354 122H294.711V124H299.354V122ZM295.711 123.009L295.74 119.581L293.74 119.564L293.711 122.991L295.711 123.009ZM294.74 120.572H299.354V118.572H294.74V120.572ZM299.354 120.572C300.658 120.572 301.831 120.278 302.817 119.633L301.722 117.959C301.126 118.349 300.355 118.572 299.354 118.572V120.572ZM302.824 119.628C303.807 118.973 304.521 118.033 304.986 116.866L303.128 116.126C302.791 116.971 302.314 117.564 301.715 117.964L302.824 119.628ZM304.983 116.874C305.454 115.717 305.672 114.365 305.672 112.849H303.672C303.672 114.183 303.479 115.264 303.131 116.119L304.983 116.874ZM305.672 112.849V111.809H303.672V112.849H305.672ZM305.672 111.809C305.672 110.646 305.548 109.59 305.283 108.651L303.358 109.195C303.562 109.916 303.672 110.783 303.672 111.809H305.672ZM305.286 108.662C305.032 107.725 304.641 106.898 304.093 106.207L302.526 107.45C302.876 107.891 303.159 108.461 303.355 109.184L305.286 108.662ZM304.093 106.207C303.543 105.513 302.859 104.986 302.052 104.636L301.257 106.471C301.758 106.688 302.178 107.01 302.526 107.45L304.093 106.207ZM302.063 104.641C301.259 104.281 300.363 104.114 299.398 104.114V106.114C300.133 106.114 300.741 106.241 301.246 106.466L302.063 104.641ZM299.398 104.114H294.623V106.114H299.398V104.114ZM295.623 105.114V101.672H293.623V105.114H295.623ZM294.623 102.672H299.398V100.672H294.623V102.672ZM299.398 102.672C300.708 102.672 301.88 102.896 302.928 103.328L303.691 101.48C302.376 100.936 300.94 100.672 299.398 100.672V102.672ZM302.937 103.332C304.001 103.76 304.913 104.37 305.682 105.165L307.119 103.774C306.15 102.772 305 102.006 303.682 101.476L302.937 103.332ZM305.682 105.165C306.449 105.958 307.047 106.913 307.471 108.044L309.344 107.341C308.83 105.972 308.09 104.778 307.119 103.774L305.682 105.165ZM307.474 108.052C307.902 109.162 308.125 110.42 308.125 111.838H310.125C310.125 110.209 309.869 108.703 309.34 107.332L307.474 108.052ZM308.125 111.838V112.849H310.125V111.838H308.125ZM308.125 112.849C308.125 114.256 307.903 115.515 307.473 116.637L309.341 117.352C309.869 115.974 310.125 114.469 310.125 112.849H308.125ZM307.471 116.643C307.047 117.773 306.449 118.728 305.682 119.522L307.119 120.912C308.09 119.908 308.83 118.715 309.344 117.345L307.471 116.643ZM305.682 119.522C304.924 120.305 304.012 120.917 302.933 121.356L303.686 123.209C305.01 122.671 306.158 121.906 307.119 120.912L305.682 119.522ZM302.937 121.354C301.878 121.78 300.688 122 299.354 122V124C300.912 124 302.358 123.742 303.682 123.21L302.937 121.354ZM296.201 101.672V123H298.201V101.672H296.201ZM297.201 122H292.807V124H297.201V122ZM293.807 123V101.672H291.807V123H293.807ZM292.807 102.672H297.201V100.672H292.807V102.672ZM326.63 119.572H327.63V118.572H326.63V119.572ZM326.63 123V124H327.63V123H326.63ZM315.277 123H314.277V124H315.277V123ZM315.277 119.572V118.572H314.277V119.572H315.277ZM316.713 101.672H317.713V100.672H316.713V101.672ZM316.713 123V124H317.713V123H316.713ZM312.318 123H311.318V124H312.318V123ZM312.318 101.672V100.672H311.318V101.672H312.318ZM325.15 110.358H326.15V109.358H325.15V110.358ZM325.15 113.698V114.698H326.15V113.698H325.15ZM315.277 113.698H314.277V114.698H315.277V113.698ZM315.277 110.358V109.358H314.277V110.358H315.277ZM326.615 101.672H327.615V100.672H326.615V101.672ZM326.615 105.114V106.114H327.615V105.114H326.615ZM315.277 105.114H314.277V106.114H315.277V105.114ZM315.277 101.672V100.672H314.277V101.672H315.277ZM325.63 119.572V123H327.63V119.572H325.63ZM326.63 122H315.277V124H326.63V122ZM316.277 123V119.572H314.277V123H316.277ZM315.277 120.572H326.63V118.572H315.277V120.572ZM315.713 101.672V123H317.713V101.672H315.713ZM316.713 122H312.318V124H316.713V122ZM313.318 123V101.672H311.318V123H313.318ZM312.318 102.672H316.713V100.672H312.318V102.672ZM324.15 110.358V113.698H326.15V110.358H324.15ZM325.15 112.698H315.277V114.698H325.15V112.698ZM316.277 113.698V110.358H314.277V113.698H316.277ZM315.277 111.358H325.15V109.358H315.277V111.358ZM325.615 101.672V105.114H327.615V101.672H325.615ZM326.615 104.114H315.277V106.114H326.615V104.114ZM316.277 105.114V101.672H314.277V105.114H316.277ZM315.277 102.672H326.615V100.672H315.277V102.672ZM329.193 101.672V100.672H328.193V101.672H329.193ZM341.352 102.404L340.967 103.327L340.97 103.328L341.352 102.404ZM344.442 111.047L343.54 110.617L343.537 110.622L344.442 111.047ZM342.816 113.083L343.429 113.874L343.43 113.872L342.816 113.083ZM340.37 114.372L340.045 113.426L339.972 113.451L339.904 113.487L340.37 114.372ZM338.979 115.104V116.104H339.226L339.444 115.989L338.979 115.104ZM332.064 115.104L331.064 115.113L331.073 116.104H332.064V115.104ZM332.035 111.677V110.677H331.027L331.035 111.685L332.035 111.677ZM340.238 110.124L339.358 109.649L339.355 109.656L339.351 109.663L340.238 110.124ZM333.588 105.114V104.114H332.588V105.114H333.588ZM333.588 123V124H334.588V123H333.588ZM329.193 123H328.193V124H329.193V123ZM341.117 123L340.227 123.455L340.505 124H341.117V123ZM336.254 113.493L336.248 112.493L334.624 112.503L335.364 113.949L336.254 113.493ZM340.897 113.464L341.782 112.997L341.499 112.46L340.891 112.464L340.897 113.464ZM345.819 122.795H346.819V122.547L346.704 122.328L345.819 122.795ZM345.819 123V124H346.819V123H345.819ZM329.193 102.672H337.147V100.672H329.193V102.672ZM337.147 102.672C338.682 102.672 339.946 102.902 340.967 103.327L341.736 101.481C340.413 100.93 338.874 100.672 337.147 100.672V102.672ZM340.97 103.328C341.989 103.75 342.73 104.353 343.243 105.125L344.91 104.02C344.152 102.878 343.078 102.036 341.733 101.48L340.97 103.328ZM343.243 105.125C343.747 105.886 344.028 106.86 344.028 108.103H346.028C346.028 106.552 345.674 105.173 344.91 104.02L343.243 105.125ZM344.028 108.103C344.028 109.134 343.852 109.961 343.54 110.617L345.345 111.477C345.814 110.492 346.028 109.357 346.028 108.103H344.028ZM343.537 110.622C343.223 111.29 342.781 111.844 342.202 112.294L343.43 113.872C344.259 113.228 344.9 112.424 345.347 111.472L343.537 110.622ZM342.204 112.292C341.608 112.754 340.892 113.135 340.045 113.426L340.695 115.318C341.723 114.964 342.638 114.486 343.429 113.874L342.204 112.292ZM339.904 113.487L338.513 114.22L339.444 115.989L340.836 115.257L339.904 113.487ZM338.979 114.104H332.064V116.104H338.979V114.104ZM333.064 115.096L333.035 111.668L331.035 111.685L331.064 115.113L333.064 115.096ZM332.035 112.677H337.177V110.677H332.035V112.677ZM337.177 112.677C338.06 112.677 338.875 112.521 339.57 112.147L338.622 110.386C338.3 110.559 337.836 110.677 337.177 110.677V112.677ZM339.57 112.147C340.245 111.783 340.774 111.26 341.125 110.585L339.351 109.663C339.194 109.964 338.962 110.203 338.622 110.386L339.57 112.147ZM341.118 110.599C341.473 109.943 341.634 109.208 341.634 108.425H339.634C339.634 108.93 339.531 109.329 339.358 109.649L341.118 110.599ZM341.634 108.425C341.634 107.618 341.484 106.865 341.144 106.198L339.362 107.107C339.53 107.436 339.634 107.864 339.634 108.425H341.634ZM341.144 106.198C340.79 105.504 340.247 104.974 339.55 104.619L338.642 106.401C338.979 106.573 339.208 106.804 339.362 107.107L341.144 106.198ZM339.55 104.619C338.852 104.263 338.035 104.114 337.147 104.114V106.114C337.823 106.114 338.305 106.229 338.642 106.401L339.55 104.619ZM337.147 104.114H333.588V106.114H337.147V104.114ZM332.588 105.114V123H334.588V105.114H332.588ZM333.588 122H329.193V124H333.588V122ZM330.193 123V101.672H328.193V123H330.193ZM342.007 122.545L337.144 113.038L335.364 113.949L340.227 123.455L342.007 122.545ZM336.26 114.493L340.904 114.464L340.891 112.464L336.248 112.493L336.26 114.493ZM340.013 113.93L344.935 123.261L346.704 122.328L341.782 112.997L340.013 113.93ZM344.819 122.795V123H346.819V122.795H344.819ZM345.819 122H341.117V124H345.819V122ZM359.34 116.394L358.394 116.719L358.4 116.737L358.407 116.755L359.34 116.394ZM358.725 115.544L358.068 116.298L358.075 116.304L358.082 116.31L358.725 115.544ZM357.45 114.768L357.871 113.861L357.45 114.768ZM355.326 113.977L355.019 114.928L355.026 114.93L355.326 113.977ZM352.572 112.922L352.158 113.832L352.162 113.834L352.572 112.922ZM350.287 111.56L349.66 112.338L349.666 112.343L349.672 112.348L350.287 111.56ZM348.734 109.729L347.853 110.2L347.858 110.21L348.734 109.729ZM348.764 104.895L349.643 105.37L349.646 105.365L348.764 104.895ZM350.404 103.02L350.997 103.825L351.004 103.82L350.404 103.02ZM352.895 101.804L352.613 100.844L352.611 100.845L352.895 101.804ZM362.914 104.558L362.077 105.105L362.081 105.11L362.914 104.558ZM363.896 107.941V108.941H364.896V107.941H363.896ZM359.53 107.941H358.53V108.941H359.53V107.941ZM359.135 106.301L358.251 106.769L358.257 106.78L358.263 106.791L359.135 106.301ZM357.963 105.173L357.496 106.057L357.503 106.061L357.963 105.173ZM354.096 105.114L354.5 106.029L354.508 106.026L354.515 106.022L354.096 105.114ZM352.953 106.037L353.785 106.592L353.792 106.582L352.953 106.037ZM352.836 108.308L351.978 108.822L351.985 108.832L351.991 108.843L352.836 108.308ZM353.656 109.128L354.231 108.31L353.656 109.128ZM356.82 110.505L356.524 111.46L356.531 111.462L356.82 110.505ZM359.882 111.691L359.435 112.586L359.439 112.588L359.882 111.691ZM362.108 113.171L362.785 112.434L362.108 113.171ZM361.801 121.74L361.204 120.937L361.801 121.74ZM353.056 122.883L352.789 123.847L352.798 123.849L353.056 122.883ZM350.258 121.608L349.694 122.434L349.699 122.437L350.258 121.608ZM347.519 116.32V115.32H346.519V116.32H347.519ZM351.928 116.32H352.928V115.32H351.928V116.32ZM353.1 119.118L352.493 119.913L352.503 119.921L353.1 119.118ZM354.447 119.733L354.209 120.705L354.213 120.706L354.447 119.733ZM358.051 119.602L357.655 118.683L357.648 118.686L358.051 119.602ZM359.149 118.708L358.308 118.168L358.303 118.176L358.298 118.184L359.149 118.708ZM360.516 117.419C360.516 116.936 360.441 116.469 360.272 116.033L358.407 116.755C358.473 116.924 358.516 117.141 358.516 117.419H360.516ZM360.286 116.068C360.108 115.553 359.782 115.125 359.367 114.778L358.082 116.31C358.273 116.47 358.356 116.609 358.394 116.719L360.286 116.068ZM359.381 114.79C358.982 114.442 358.465 114.136 357.871 113.861L357.029 115.675C357.529 115.907 357.862 116.119 358.068 116.298L359.381 114.79ZM357.871 113.861C357.271 113.582 356.518 113.303 355.626 113.023L355.026 114.93C355.872 115.197 356.536 115.446 357.029 115.675L357.871 113.861ZM355.634 113.025C354.699 112.723 353.816 112.384 352.982 112.01L352.162 113.834C353.067 114.241 354.019 114.605 355.019 114.928L355.634 113.025ZM352.986 112.012C352.19 111.65 351.497 111.235 350.902 110.771L349.672 112.348C350.405 112.92 351.236 113.413 352.158 113.832L352.986 112.012ZM350.915 110.781C350.355 110.33 349.925 109.819 349.611 109.247L347.858 110.21C348.305 111.025 348.91 111.734 349.66 112.338L350.915 110.781ZM349.616 109.257C349.335 108.731 349.178 108.092 349.178 107.312H347.178C347.178 108.366 347.392 109.339 347.853 110.2L349.616 109.257ZM349.178 107.312C349.178 106.575 349.338 105.935 349.643 105.37L347.884 104.419C347.408 105.3 347.178 106.271 347.178 107.312H349.178ZM349.646 105.365C349.963 104.771 350.408 104.259 350.997 103.825L349.811 102.214C348.994 102.816 348.346 103.553 347.881 104.424L349.646 105.365ZM351.004 103.82C351.6 103.373 352.32 103.017 353.178 102.763L352.611 100.845C351.555 101.157 350.615 101.612 349.804 102.22L351.004 103.82ZM353.176 102.763C354.039 102.51 355.003 102.379 356.073 102.379V100.379C354.839 100.379 353.684 100.531 352.613 100.844L353.176 102.763ZM356.073 102.379C357.526 102.379 358.743 102.64 359.754 103.129L360.625 101.328C359.292 100.684 357.765 100.379 356.073 100.379V102.379ZM359.754 103.129C360.78 103.625 361.542 104.286 362.077 105.105L363.751 104.011C362.997 102.857 361.942 101.965 360.625 101.328L359.754 103.129ZM362.081 105.11C362.618 105.921 362.896 106.854 362.896 107.941H364.896C364.896 106.49 364.518 105.167 363.747 104.005L362.081 105.11ZM363.896 106.941H359.53V108.941H363.896V106.941ZM360.53 107.941C360.53 107.173 360.367 106.452 360.006 105.811L358.263 106.791C358.43 107.087 358.53 107.46 358.53 107.941H360.53ZM360.018 105.832C359.66 105.157 359.113 104.643 358.423 104.285L357.503 106.061C357.868 106.25 358.102 106.488 358.251 106.769L360.018 105.832ZM358.43 104.289C357.727 103.917 356.899 103.763 356 103.763V105.763C356.683 105.763 357.164 105.882 357.496 106.057L358.43 104.289ZM356 103.763C355.143 103.763 354.354 103.894 353.677 104.206L354.515 106.022C354.853 105.866 355.334 105.763 356 105.763V103.763ZM353.691 104.2C353.04 104.488 352.493 104.91 352.115 105.492L353.792 106.582C353.921 106.383 354.135 106.19 354.5 106.029L353.691 104.2ZM352.121 105.482C351.753 106.035 351.572 106.66 351.572 107.326H353.572C353.572 107.036 353.646 106.801 353.785 106.592L352.121 105.482ZM351.572 107.326C351.572 107.858 351.704 108.365 351.978 108.822L353.693 107.793C353.616 107.665 353.572 107.517 353.572 107.326H351.572ZM351.991 108.843C352.264 109.273 352.641 109.636 353.081 109.946L354.231 108.31C353.949 108.112 353.779 107.928 353.681 107.773L351.991 108.843ZM353.081 109.946C353.514 110.25 354.024 110.521 354.597 110.766L355.381 108.926C354.9 108.721 354.521 108.514 354.231 108.31L353.081 109.946ZM354.597 110.766C355.163 111.007 355.807 111.238 356.524 111.46L357.116 109.55C356.447 109.342 355.87 109.134 355.381 108.926L354.597 110.766ZM356.531 111.462C357.651 111.801 358.617 112.177 359.435 112.586L360.329 110.797C359.389 110.327 358.314 109.912 357.11 109.548L356.531 111.462ZM359.439 112.588C360.261 112.994 360.92 113.437 361.432 113.908L362.785 112.434C362.106 111.811 361.28 111.267 360.325 110.795L359.439 112.588ZM361.432 113.908C361.932 114.367 362.296 114.874 362.54 115.431L364.373 114.631C364.01 113.801 363.476 113.069 362.785 112.434L361.432 113.908ZM362.54 115.431C362.779 115.98 362.91 116.626 362.91 117.39H364.91C364.91 116.395 364.739 115.469 364.373 114.631L362.54 115.431ZM362.91 117.39C362.91 118.185 362.756 118.86 362.471 119.437L364.265 120.322C364.703 119.435 364.91 118.45 364.91 117.39H362.91ZM362.471 119.437C362.183 120.022 361.766 120.52 361.204 120.937L362.397 122.543C363.202 121.945 363.83 121.203 364.265 120.322L362.471 119.437ZM361.204 120.937C360.633 121.362 359.933 121.698 359.086 121.934L359.623 123.861C360.67 123.569 361.601 123.134 362.397 122.543L361.204 120.937ZM359.086 121.934C358.241 122.169 357.274 122.293 356.176 122.293V124.293C357.422 124.293 358.573 124.153 359.623 123.861L359.086 121.934ZM356.176 122.293C355.209 122.293 354.255 122.168 353.313 121.917L352.798 123.849C353.907 124.145 355.034 124.293 356.176 124.293V122.293ZM353.322 121.919C352.396 121.663 351.563 121.282 350.817 120.779L349.699 122.437C350.633 123.067 351.665 123.536 352.789 123.847L353.322 121.919ZM350.821 120.782C350.118 120.303 349.559 119.694 349.136 118.947L347.396 119.933C347.969 120.945 348.737 121.781 349.694 122.434L350.821 120.782ZM349.136 118.947C348.738 118.245 348.519 117.381 348.519 116.32H346.519C346.519 117.662 346.798 118.878 347.396 119.933L349.136 118.947ZM347.519 117.32H351.928V115.32H347.519V117.32ZM350.928 116.32C350.928 117.082 351.045 117.791 351.322 118.413L353.148 117.597C353.016 117.3 352.928 116.887 352.928 116.32H350.928ZM351.322 118.413C351.59 119.012 351.979 119.521 352.493 119.913L353.706 118.323C353.478 118.149 353.291 117.915 353.148 117.597L351.322 118.413ZM352.503 119.921C353.003 120.293 353.578 120.55 354.209 120.705L354.685 118.762C354.282 118.663 353.958 118.51 353.696 118.316L352.503 119.921ZM354.213 120.706C354.828 120.854 355.484 120.924 356.176 120.924V118.924C355.618 118.924 355.121 118.867 354.681 118.761L354.213 120.706ZM356.176 120.924C357.021 120.924 357.796 120.806 358.454 120.517L357.648 118.686C357.329 118.827 356.854 118.924 356.176 118.924V120.924ZM358.447 120.52C359.093 120.241 359.638 119.822 360.001 119.232L358.298 118.184C358.192 118.355 358.005 118.532 357.655 118.683L358.447 120.52ZM359.991 119.248C360.345 118.696 360.516 118.077 360.516 117.419H358.516C358.516 117.718 358.442 117.958 358.308 118.168L359.991 119.248Z" fill="white"/>
</svg>
