<svg width="624" height="226" viewBox="0 0 624 226" fill="none" xmlns="http://www.w3.org/2000/svg">
<rect x="0.5" y="0.5" width="623" height="225" rx="9.5" fill="#E5E5E5" fill-opacity="0.51" stroke="black"/>
<path d="M231.21 115.397H225.775V111.97H231.21C232.05 111.97 232.733 111.833 233.261 111.56C233.788 111.276 234.174 110.886 234.418 110.388C234.662 109.89 234.784 109.328 234.784 108.703C234.784 108.068 234.662 107.478 234.418 106.931C234.174 106.384 233.788 105.944 233.261 105.612C232.733 105.28 232.05 105.114 231.21 105.114H227.299V123H222.904V101.672H231.21C232.88 101.672 234.311 101.975 235.502 102.58C236.703 103.176 237.621 104.001 238.256 105.056C238.891 106.11 239.208 107.316 239.208 108.674C239.208 110.051 238.891 111.242 238.256 112.248C237.621 113.254 236.703 114.03 235.502 114.577C234.311 115.124 232.88 115.397 231.21 115.397ZM242.24 101.672H250.194C251.825 101.672 253.227 101.916 254.398 102.404C255.58 102.893 256.488 103.615 257.123 104.572C257.758 105.529 258.075 106.706 258.075 108.103C258.075 109.245 257.88 110.227 257.489 111.047C257.108 111.857 256.566 112.536 255.863 113.083C255.17 113.62 254.354 114.05 253.417 114.372L252.025 115.104H245.111L245.082 111.677H250.224C250.995 111.677 251.635 111.54 252.143 111.267C252.65 110.993 253.031 110.612 253.285 110.124C253.549 109.636 253.681 109.069 253.681 108.425C253.681 107.741 253.554 107.15 253.3 106.652C253.046 106.154 252.66 105.773 252.143 105.51C251.625 105.246 250.976 105.114 250.194 105.114H246.635V123H242.24V101.672ZM254.164 123L249.301 113.493L253.944 113.464L258.866 122.795V123H254.164ZM278.979 111.838V112.849C278.979 114.47 278.759 115.925 278.319 117.214C277.88 118.503 277.26 119.602 276.459 120.51C275.658 121.408 274.701 122.097 273.588 122.575C272.484 123.054 271.259 123.293 269.911 123.293C268.573 123.293 267.348 123.054 266.234 122.575C265.131 122.097 264.174 121.408 263.363 120.51C262.553 119.602 261.923 118.503 261.474 117.214C261.034 115.925 260.814 114.47 260.814 112.849V111.838C260.814 110.207 261.034 108.752 261.474 107.473C261.913 106.184 262.533 105.085 263.334 104.177C264.145 103.269 265.102 102.575 266.205 102.097C267.318 101.618 268.544 101.379 269.882 101.379C271.229 101.379 272.455 101.618 273.559 102.097C274.672 102.575 275.629 103.269 276.43 104.177C277.24 105.085 277.865 106.184 278.305 107.473C278.754 108.752 278.979 110.207 278.979 111.838ZM274.54 112.849V111.809C274.54 110.676 274.438 109.68 274.232 108.82C274.027 107.961 273.725 107.238 273.324 106.652C272.924 106.066 272.436 105.627 271.859 105.334C271.283 105.031 270.624 104.88 269.882 104.88C269.14 104.88 268.48 105.031 267.904 105.334C267.338 105.627 266.854 106.066 266.454 106.652C266.063 107.238 265.766 107.961 265.561 108.82C265.355 109.68 265.253 110.676 265.253 111.809V112.849C265.253 113.972 265.355 114.968 265.561 115.837C265.766 116.696 266.068 117.424 266.469 118.02C266.869 118.605 267.357 119.05 267.934 119.353C268.51 119.655 269.169 119.807 269.911 119.807C270.653 119.807 271.312 119.655 271.889 119.353C272.465 119.05 272.948 118.605 273.339 118.02C273.729 117.424 274.027 116.696 274.232 115.837C274.438 114.968 274.54 113.972 274.54 112.849ZM288.69 123H284.047L284.076 119.572H288.69C289.843 119.572 290.814 119.313 291.605 118.796C292.396 118.269 292.992 117.502 293.393 116.496C293.803 115.49 294.008 114.274 294.008 112.849V111.809C294.008 110.715 293.891 109.753 293.656 108.923C293.432 108.093 293.095 107.395 292.646 106.828C292.196 106.262 291.645 105.837 290.99 105.554C290.336 105.261 289.584 105.114 288.734 105.114H283.959V101.672H288.734C290.16 101.672 291.464 101.916 292.646 102.404C293.837 102.883 294.867 103.571 295.736 104.47C296.605 105.368 297.274 106.442 297.743 107.692C298.222 108.933 298.461 110.314 298.461 111.838V112.849C298.461 114.362 298.222 115.744 297.743 116.994C297.274 118.244 296.605 119.318 295.736 120.217C294.877 121.105 293.847 121.794 292.646 122.282C291.454 122.761 290.136 123 288.69 123ZM286.537 101.672V123H282.143V101.672H286.537ZM313.432 101.672H317.812V115.764C317.812 117.404 317.46 118.786 316.757 119.909C316.063 121.032 315.102 121.877 313.871 122.443C312.65 123.01 311.244 123.293 309.652 123.293C308.061 123.293 306.645 123.01 305.404 122.443C304.174 121.877 303.207 121.032 302.504 119.909C301.811 118.786 301.464 117.404 301.464 115.764V101.672H305.858V115.764C305.858 116.721 306.01 117.502 306.312 118.107C306.615 118.713 307.05 119.157 307.616 119.44C308.192 119.724 308.871 119.865 309.652 119.865C310.453 119.865 311.132 119.724 311.688 119.44C312.255 119.157 312.685 118.713 312.978 118.107C313.28 117.502 313.432 116.721 313.432 115.764V101.672ZM333.793 115.925H338.173C338.085 117.36 337.689 118.635 336.986 119.748C336.293 120.861 335.321 121.73 334.071 122.355C332.831 122.98 331.337 123.293 329.589 123.293C328.222 123.293 326.996 123.059 325.912 122.59C324.828 122.111 323.9 121.428 323.129 120.539C322.367 119.65 321.786 118.576 321.386 117.316C320.985 116.057 320.785 114.646 320.785 113.083V111.604C320.785 110.041 320.99 108.63 321.4 107.37C321.82 106.101 322.416 105.021 323.188 104.133C323.969 103.244 324.901 102.561 325.985 102.082C327.069 101.604 328.28 101.364 329.618 101.364C331.396 101.364 332.895 101.687 334.115 102.331C335.346 102.976 336.298 103.864 336.972 104.997C337.655 106.13 338.065 107.419 338.202 108.864H333.808C333.759 108.005 333.588 107.277 333.295 106.682C333.002 106.076 332.558 105.622 331.962 105.319C331.376 105.007 330.595 104.851 329.618 104.851C328.886 104.851 328.246 104.987 327.699 105.261C327.152 105.534 326.693 105.949 326.322 106.506C325.951 107.062 325.673 107.766 325.487 108.615C325.312 109.455 325.224 110.441 325.224 111.574V113.083C325.224 114.187 325.307 115.158 325.473 115.998C325.639 116.828 325.893 117.531 326.234 118.107C326.586 118.674 327.035 119.104 327.582 119.396C328.139 119.68 328.808 119.821 329.589 119.821C330.507 119.821 331.264 119.675 331.859 119.382C332.455 119.089 332.909 118.654 333.222 118.078C333.544 117.502 333.734 116.784 333.793 115.925ZM350.155 101.672V123H345.775V101.672H350.155ZM356.718 101.672V105.114H339.315V101.672H356.718ZM370.092 117.419C370.092 117.038 370.033 116.696 369.916 116.394C369.809 116.081 369.604 115.798 369.301 115.544C368.998 115.28 368.573 115.021 368.026 114.768C367.479 114.514 366.771 114.25 365.902 113.977C364.936 113.664 364.018 113.312 363.148 112.922C362.289 112.531 361.527 112.077 360.863 111.56C360.209 111.032 359.691 110.422 359.311 109.729C358.939 109.035 358.754 108.229 358.754 107.312C358.754 106.423 358.949 105.617 359.34 104.895C359.73 104.162 360.277 103.537 360.98 103.02C361.684 102.492 362.514 102.087 363.471 101.804C364.438 101.521 365.497 101.379 366.649 101.379C368.222 101.379 369.594 101.662 370.766 102.229C371.938 102.795 372.846 103.571 373.49 104.558C374.145 105.544 374.472 106.672 374.472 107.941H370.106C370.106 107.316 369.975 106.77 369.711 106.301C369.457 105.822 369.066 105.446 368.539 105.173C368.021 104.899 367.367 104.763 366.576 104.763C365.814 104.763 365.18 104.88 364.672 105.114C364.164 105.339 363.783 105.646 363.529 106.037C363.275 106.418 363.148 106.848 363.148 107.326C363.148 107.688 363.236 108.015 363.412 108.308C363.598 108.601 363.871 108.874 364.232 109.128C364.594 109.382 365.038 109.621 365.565 109.846C366.093 110.07 366.703 110.29 367.396 110.505C368.559 110.856 369.579 111.252 370.458 111.691C371.347 112.131 372.089 112.624 372.685 113.171C373.28 113.718 373.729 114.338 374.032 115.031C374.335 115.725 374.486 116.511 374.486 117.39C374.486 118.317 374.306 119.147 373.944 119.88C373.583 120.612 373.061 121.232 372.377 121.74C371.693 122.248 370.878 122.634 369.931 122.897C368.983 123.161 367.924 123.293 366.752 123.293C365.697 123.293 364.657 123.156 363.632 122.883C362.606 122.6 361.674 122.175 360.834 121.608C360.004 121.042 359.34 120.319 358.842 119.44C358.344 118.562 358.095 117.521 358.095 116.32H362.504C362.504 116.984 362.606 117.546 362.812 118.005C363.017 118.464 363.305 118.835 363.676 119.118C364.057 119.401 364.506 119.606 365.023 119.733C365.551 119.86 366.127 119.924 366.752 119.924C367.514 119.924 368.139 119.816 368.627 119.602C369.125 119.387 369.491 119.089 369.726 118.708C369.97 118.327 370.092 117.897 370.092 117.419Z" fill="black"/>
<path d="M225.775 115.397H224.775V116.397H225.775V115.397ZM225.775 111.97V110.97H224.775V111.97H225.775ZM233.261 111.56L233.721 112.447L233.727 112.444L233.734 112.441L233.261 111.56ZM234.418 106.931L233.505 107.338L234.418 106.931ZM227.299 105.114V104.114H226.299V105.114H227.299ZM227.299 123V124H228.299V123H227.299ZM222.904 123H221.904V124H222.904V123ZM222.904 101.672V100.672H221.904V101.672H222.904ZM235.502 102.58L235.049 103.472L235.058 103.476L235.502 102.58ZM235.502 114.577L235.088 113.667L235.085 113.668L235.502 114.577ZM231.21 114.397H225.775V116.397H231.21V114.397ZM226.775 115.397V111.97H224.775V115.397H226.775ZM225.775 112.97H231.21V110.97H225.775V112.97ZM231.21 112.97C232.148 112.97 233.005 112.819 233.721 112.447L232.8 110.672C232.462 110.847 231.952 110.97 231.21 110.97V112.97ZM233.734 112.441C234.43 112.067 234.972 111.529 235.316 110.828L233.52 109.948C233.375 110.243 233.146 110.486 232.788 110.679L233.734 112.441ZM235.316 110.828C235.635 110.176 235.784 109.461 235.784 108.703H233.784C233.784 109.195 233.689 109.603 233.52 109.948L235.316 110.828ZM235.784 108.703C235.784 107.936 235.636 107.206 235.331 106.523L233.505 107.338C233.688 107.749 233.784 108.2 233.784 108.703H235.784ZM235.331 106.523C235.003 105.788 234.481 105.199 233.794 104.766L232.728 106.459C233.095 106.69 233.345 106.98 233.505 107.338L235.331 106.523ZM233.794 104.766C233.06 104.304 232.175 104.114 231.21 104.114V106.114C231.925 106.114 232.407 106.256 232.728 106.459L233.794 104.766ZM231.21 104.114H227.299V106.114H231.21V104.114ZM226.299 105.114V123H228.299V105.114H226.299ZM227.299 122H222.904V124H227.299V122ZM223.904 123V101.672H221.904V123H223.904ZM222.904 102.672H231.21V100.672H222.904V102.672ZM231.21 102.672C232.761 102.672 234.029 102.953 235.049 103.472L235.955 101.689C234.593 100.996 232.999 100.672 231.21 100.672V102.672ZM235.058 103.476C236.104 103.995 236.871 104.695 237.399 105.571L239.113 104.54C238.371 103.307 237.303 102.357 235.946 101.684L235.058 103.476ZM237.399 105.571C237.931 106.455 238.208 107.479 238.208 108.674H240.208C240.208 107.154 239.851 105.766 239.113 104.54L237.399 105.571ZM238.208 108.674C238.208 109.892 237.929 110.892 237.41 111.714L239.102 112.782C239.852 111.592 240.208 110.209 240.208 108.674H238.208ZM237.41 111.714C236.891 112.538 236.132 113.192 235.088 113.667L235.916 115.487C237.275 114.869 238.352 113.97 239.102 112.782L237.41 111.714ZM235.085 113.668C234.055 114.141 232.774 114.397 231.21 114.397V116.397C232.986 116.397 234.566 116.107 235.919 115.486L235.085 113.668ZM242.24 101.672V100.672H241.24V101.672H242.24ZM254.398 102.404L254.014 103.327L254.017 103.328L254.398 102.404ZM257.489 111.047L256.586 110.617L256.584 110.622L257.489 111.047ZM255.863 113.083L256.476 113.874L256.477 113.872L255.863 113.083ZM253.417 114.372L253.092 113.426L253.019 113.451L252.951 113.487L253.417 114.372ZM252.025 115.104V116.104H252.272L252.491 115.989L252.025 115.104ZM245.111 115.104L244.111 115.113L244.12 116.104H245.111V115.104ZM245.082 111.677V110.677H244.073L244.082 111.685L245.082 111.677ZM253.285 110.124L252.405 109.649L252.402 109.656L252.398 109.663L253.285 110.124ZM246.635 105.114V104.114H245.635V105.114H246.635ZM246.635 123V124H247.635V123H246.635ZM242.24 123H241.24V124H242.24V123ZM254.164 123L253.274 123.455L253.552 124H254.164V123ZM249.301 113.493L249.294 112.493L247.671 112.503L248.411 113.949L249.301 113.493ZM253.944 113.464L254.829 112.997L254.545 112.46L253.938 112.464L253.944 113.464ZM258.866 122.795H259.866V122.547L259.751 122.328L258.866 122.795ZM258.866 123V124H259.866V123H258.866ZM242.24 102.672H250.194V100.672H242.24V102.672ZM250.194 102.672C251.729 102.672 252.993 102.902 254.014 103.327L254.783 101.481C253.46 100.93 251.921 100.672 250.194 100.672V102.672ZM254.017 103.328C255.036 103.75 255.777 104.353 256.29 105.125L257.956 104.02C257.199 102.878 256.124 102.036 254.78 101.48L254.017 103.328ZM256.29 105.125C256.794 105.886 257.075 106.86 257.075 108.103H259.075C259.075 106.552 258.721 105.173 257.956 104.02L256.29 105.125ZM257.075 108.103C257.075 109.134 256.899 109.961 256.586 110.617L258.392 111.477C258.861 110.492 259.075 109.357 259.075 108.103H257.075ZM256.584 110.622C256.27 111.29 255.827 111.844 255.249 112.294L256.477 113.872C257.305 113.228 257.947 112.424 258.394 111.472L256.584 110.622ZM255.251 112.292C254.655 112.754 253.939 113.135 253.092 113.426L253.742 115.318C254.77 114.964 255.685 114.486 256.476 113.874L255.251 112.292ZM252.951 113.487L251.56 114.22L252.491 115.989L253.883 115.257L252.951 113.487ZM252.025 114.104H245.111V116.104H252.025V114.104ZM246.111 115.096L246.082 111.668L244.082 111.685L244.111 115.113L246.111 115.096ZM245.082 112.677H250.224V110.677H245.082V112.677ZM250.224 112.677C251.107 112.677 251.922 112.521 252.617 112.147L251.668 110.386C251.347 110.559 250.883 110.677 250.224 110.677V112.677ZM252.617 112.147C253.292 111.783 253.821 111.26 254.172 110.585L252.398 109.663C252.241 109.964 252.009 110.203 251.668 110.386L252.617 112.147ZM254.165 110.599C254.519 109.943 254.681 109.208 254.681 108.425H252.681C252.681 108.93 252.578 109.329 252.405 109.649L254.165 110.599ZM254.681 108.425C254.681 107.618 254.531 106.865 254.191 106.198L252.409 107.107C252.577 107.436 252.681 107.864 252.681 108.425H254.681ZM254.191 106.198C253.837 105.504 253.294 104.974 252.597 104.619L251.689 106.401C252.026 106.573 252.255 106.804 252.409 107.107L254.191 106.198ZM252.597 104.619C251.898 104.263 251.081 104.114 250.194 104.114V106.114C250.87 106.114 251.352 106.229 251.689 106.401L252.597 104.619ZM250.194 104.114H246.635V106.114H250.194V104.114ZM245.635 105.114V123H247.635V105.114H245.635ZM246.635 122H242.24V124H246.635V122ZM243.24 123V101.672H241.24V123H243.24ZM255.054 122.545L250.191 113.038L248.411 113.949L253.274 123.455L255.054 122.545ZM249.307 114.493L253.951 114.464L253.938 112.464L249.294 112.493L249.307 114.493ZM253.06 113.93L257.982 123.261L259.751 122.328L254.829 112.997L253.06 113.93ZM257.866 122.795V123H259.866V122.795H257.866ZM258.866 122H254.164V124H258.866V122ZM276.459 120.51L277.206 121.175L277.209 121.171L276.459 120.51ZM273.588 122.575L273.193 121.656L273.19 121.658L273.588 122.575ZM266.234 122.575L265.837 123.493L265.839 123.494L266.234 122.575ZM263.363 120.51L262.617 121.176L262.621 121.18L263.363 120.51ZM261.474 117.214L260.527 117.537L260.529 117.543L261.474 117.214ZM261.474 107.473L262.419 107.798L262.42 107.795L261.474 107.473ZM263.334 104.177L262.588 103.511L262.584 103.515L263.334 104.177ZM266.205 102.097L265.81 101.178L265.807 101.179L266.205 102.097ZM273.559 102.097L273.161 103.014L273.164 103.015L273.559 102.097ZM276.43 104.177L275.68 104.838L275.684 104.843L276.43 104.177ZM278.305 107.473L277.358 107.795L277.361 107.804L278.305 107.473ZM274.232 108.82L273.26 109.052L274.232 108.82ZM271.859 105.334L271.394 106.219L271.406 106.225L271.859 105.334ZM267.904 105.334L268.364 106.222L268.369 106.219L267.904 105.334ZM266.454 106.652L265.628 106.088L265.622 106.098L266.454 106.652ZM265.561 115.837L264.587 116.067L264.588 116.069L265.561 115.837ZM266.469 118.02L265.639 118.577L265.643 118.584L266.469 118.02ZM273.339 118.02L274.171 118.574L274.175 118.568L273.339 118.02ZM274.232 115.837L275.205 116.069L275.206 116.067L274.232 115.837ZM277.979 111.838V112.849H279.979V111.838H277.979ZM277.979 112.849C277.979 114.38 277.771 115.724 277.373 116.891L279.266 117.537C279.747 116.126 279.979 114.559 279.979 112.849H277.979ZM277.373 116.891C276.971 118.071 276.412 119.051 275.709 119.848L277.209 121.171C278.107 120.152 278.789 118.935 279.266 117.537L277.373 116.891ZM275.712 119.844C275.01 120.633 274.173 121.235 273.193 121.656L273.983 123.494C275.229 122.958 276.307 122.183 277.205 121.175L275.712 119.844ZM273.19 121.658C272.226 122.076 271.138 122.293 269.911 122.293V124.293C271.379 124.293 272.742 124.032 273.986 123.493L273.19 121.658ZM269.911 122.293C268.695 122.293 267.605 122.076 266.629 121.656L265.839 123.494C267.09 124.031 268.452 124.293 269.911 124.293V122.293ZM266.632 121.658C265.661 121.237 264.821 120.633 264.106 119.84L262.621 121.18C263.527 122.184 264.601 122.957 265.837 123.493L266.632 121.658ZM264.109 119.844C263.396 119.045 262.829 118.065 262.418 116.885L260.529 117.543C261.017 118.941 261.709 120.158 262.617 121.176L264.109 119.844ZM262.42 116.891C262.022 115.724 261.814 114.38 261.814 112.849H259.814C259.814 114.559 260.046 116.126 260.527 117.537L262.42 116.891ZM261.814 112.849V111.838H259.814V112.849H261.814ZM261.814 111.838C261.814 110.296 262.022 108.953 262.419 107.798L260.528 107.148C260.046 108.551 259.814 110.119 259.814 111.838H261.814ZM262.42 107.795C262.822 106.615 263.381 105.636 264.084 104.838L262.584 103.515C261.686 104.534 261.004 105.752 260.527 107.15L262.42 107.795ZM264.08 104.843C264.795 104.041 265.634 103.434 266.603 103.014L265.807 101.179C264.569 101.716 263.494 102.496 262.588 103.511L264.08 104.843ZM266.6 103.015C267.576 102.596 268.666 102.379 269.882 102.379V100.379C268.422 100.379 267.061 100.64 265.81 101.178L266.6 103.015ZM269.882 102.379C271.109 102.379 272.197 102.596 273.161 103.014L273.956 101.179C272.713 100.64 271.35 100.379 269.882 100.379V102.379ZM273.164 103.015C274.141 103.436 274.977 104.041 275.68 104.838L277.18 103.515C276.281 102.496 275.203 101.715 273.953 101.178L273.164 103.015ZM275.684 104.843C276.395 105.64 276.957 106.618 277.358 107.795L279.251 107.15C278.774 105.749 278.085 104.53 277.176 103.511L275.684 104.843ZM277.361 107.804C277.766 108.958 277.979 110.298 277.979 111.838H279.979C279.979 110.116 279.742 108.546 279.248 107.141L277.361 107.804ZM275.54 112.849V111.809H273.54V112.849H275.54ZM275.54 111.809C275.54 110.618 275.433 109.541 275.205 108.588L273.26 109.052C273.442 109.818 273.54 110.733 273.54 111.809H275.54ZM275.205 108.588C274.978 107.638 274.634 106.796 274.15 106.088L272.499 107.217C272.816 107.68 273.076 108.284 273.26 109.052L275.205 108.588ZM274.15 106.088C273.664 105.378 273.053 104.819 272.313 104.443L271.406 106.225C271.818 106.435 272.183 106.755 272.499 107.217L274.15 106.088ZM272.325 104.449C271.586 104.061 270.763 103.88 269.882 103.88V105.88C270.485 105.88 270.981 106.002 271.394 106.219L272.325 104.449ZM269.882 103.88C269.001 103.88 268.178 104.061 267.439 104.449L268.369 106.219C268.783 106.002 269.279 105.88 269.882 105.88V103.88ZM267.445 104.446C266.715 104.823 266.111 105.381 265.628 106.088L267.28 107.217C267.597 106.752 267.96 106.431 268.364 106.222L267.445 104.446ZM265.622 106.098C265.152 106.803 264.814 107.642 264.588 108.588L266.533 109.052C266.718 108.28 266.975 107.673 267.286 107.207L265.622 106.098ZM264.588 108.588C264.36 109.541 264.253 110.618 264.253 111.809H266.253C266.253 110.733 266.351 109.818 266.533 109.052L264.588 108.588ZM264.253 111.809V112.849H266.253V111.809H264.253ZM264.253 112.849C264.253 114.03 264.361 115.106 264.587 116.067L266.534 115.607C266.35 114.83 266.253 113.913 266.253 112.849H264.253ZM264.588 116.069C264.814 117.019 265.158 117.863 265.639 118.577L267.299 117.462C266.978 116.985 266.717 116.374 266.533 115.605L264.588 116.069ZM265.643 118.584C266.127 119.292 266.735 119.852 267.468 120.238L268.399 118.467C267.98 118.247 267.611 117.919 267.294 117.455L265.643 118.584ZM267.468 120.238C268.207 120.626 269.03 120.807 269.911 120.807V118.807C269.308 118.807 268.812 118.685 268.399 118.467L267.468 120.238ZM269.911 120.807C270.792 120.807 271.615 120.626 272.354 120.238L271.424 118.467C271.01 118.685 270.514 118.807 269.911 118.807V120.807ZM272.354 120.238C273.09 119.851 273.695 119.288 274.171 118.574L272.507 117.465C272.201 117.923 271.84 118.249 271.424 118.467L272.354 120.238ZM274.175 118.568C274.642 117.855 274.979 117.015 275.205 116.069L273.26 115.605C273.075 116.378 272.817 116.992 272.503 117.471L274.175 118.568ZM275.206 116.067C275.432 115.106 275.54 114.03 275.54 112.849H273.54C273.54 113.913 273.443 114.83 273.259 115.607L275.206 116.067ZM284.047 123L283.047 122.991L283.038 124H284.047V123ZM284.076 119.572V118.572H283.085L283.076 119.564L284.076 119.572ZM291.605 118.796L292.153 119.633L292.16 119.628L291.605 118.796ZM293.393 116.496L292.467 116.118L292.463 116.126L293.393 116.496ZM293.656 108.923L292.691 109.184L292.694 109.195L293.656 108.923ZM292.646 106.828L293.429 106.207L292.646 106.828ZM290.99 105.554L290.582 106.466L290.593 106.471L290.99 105.554ZM283.959 105.114H282.959V106.114H283.959V105.114ZM283.959 101.672V100.672H282.959V101.672H283.959ZM292.646 102.404L292.264 103.329L292.273 103.332L292.646 102.404ZM297.743 107.692L296.807 108.044L296.81 108.052L297.743 107.692ZM297.743 116.994L296.809 116.637L296.807 116.643L297.743 116.994ZM295.736 120.217L295.018 119.522L295.017 119.522L295.736 120.217ZM292.646 122.282L293.018 123.21L293.022 123.209L292.646 122.282ZM286.537 101.672H287.537V100.672H286.537V101.672ZM286.537 123V124H287.537V123H286.537ZM282.143 123H281.143V124H282.143V123ZM282.143 101.672V100.672H281.143V101.672H282.143ZM288.69 122H284.047V124H288.69V122ZM285.047 123.009L285.076 119.581L283.076 119.564L283.047 122.991L285.047 123.009ZM284.076 120.572H288.69V118.572H284.076V120.572ZM288.69 120.572C289.994 120.572 291.167 120.278 292.153 119.633L291.058 117.959C290.462 118.349 289.691 118.572 288.69 118.572V120.572ZM292.16 119.628C293.143 118.973 293.857 118.033 294.322 116.866L292.463 116.126C292.127 116.971 291.65 117.564 291.051 117.964L292.16 119.628ZM294.319 116.874C294.79 115.717 295.008 114.365 295.008 112.849H293.008C293.008 114.183 292.815 115.264 292.467 116.119L294.319 116.874ZM295.008 112.849V111.809H293.008V112.849H295.008ZM295.008 111.809C295.008 110.646 294.884 109.59 294.619 108.651L292.694 109.195C292.898 109.916 293.008 110.783 293.008 111.809H295.008ZM294.622 108.662C294.368 107.725 293.977 106.898 293.429 106.207L291.862 107.45C292.212 107.891 292.495 108.461 292.691 109.184L294.622 108.662ZM293.429 106.207C292.879 105.513 292.195 104.986 291.387 104.636L290.593 106.471C291.094 106.688 291.514 107.01 291.862 107.45L293.429 106.207ZM291.399 104.641C290.594 104.281 289.699 104.114 288.734 104.114V106.114C289.469 106.114 290.077 106.241 290.582 106.466L291.399 104.641ZM288.734 104.114H283.959V106.114H288.734V104.114ZM284.959 105.114V101.672H282.959V105.114H284.959ZM283.959 102.672H288.734V100.672H283.959V102.672ZM288.734 102.672C290.044 102.672 291.216 102.896 292.264 103.328L293.027 101.48C291.711 100.936 290.276 100.672 288.734 100.672V102.672ZM292.273 103.332C293.337 103.76 294.249 104.37 295.018 105.165L296.455 103.774C295.486 102.772 294.336 102.006 293.018 101.476L292.273 103.332ZM295.018 105.165C295.785 105.958 296.383 106.913 296.807 108.044L298.679 107.341C298.166 105.972 297.426 104.778 296.455 103.774L295.018 105.165ZM296.81 108.052C297.238 109.162 297.461 110.42 297.461 111.838H299.461C299.461 110.209 299.205 108.703 298.676 107.332L296.81 108.052ZM297.461 111.838V112.849H299.461V111.838H297.461ZM297.461 112.849C297.461 114.256 297.239 115.515 296.809 116.637L298.677 117.352C299.205 115.974 299.461 114.469 299.461 112.849H297.461ZM296.807 116.643C296.383 117.773 295.785 118.728 295.018 119.522L296.455 120.912C297.426 119.908 298.166 118.715 298.679 117.345L296.807 116.643ZM295.017 119.522C294.26 120.305 293.348 120.917 292.269 121.356L293.022 123.209C294.346 122.671 295.494 121.906 296.455 120.912L295.017 119.522ZM292.273 121.354C291.214 121.78 290.024 122 288.69 122V124C290.247 124 291.694 123.742 293.018 123.21L292.273 121.354ZM285.537 101.672V123H287.537V101.672H285.537ZM286.537 122H282.143V124H286.537V122ZM283.143 123V101.672H281.143V123H283.143ZM282.143 102.672H286.537V100.672H282.143V102.672ZM313.432 101.672V100.672H312.432V101.672H313.432ZM317.812 101.672H318.812V100.672H317.812V101.672ZM316.757 119.909L315.909 119.379L315.906 119.384L316.757 119.909ZM313.871 122.443L313.453 121.535L313.45 121.536L313.871 122.443ZM305.404 122.443L304.986 123.352L304.989 123.353L305.404 122.443ZM302.504 119.909L301.653 120.435L301.656 120.44L302.504 119.909ZM301.464 101.672V100.672H300.464V101.672H301.464ZM305.858 101.672H306.858V100.672H305.858V101.672ZM307.616 119.44L307.169 120.335L307.175 120.338L307.616 119.44ZM311.688 119.44L311.241 118.546L311.235 118.549L311.688 119.44ZM312.978 118.107L312.083 117.66L312.077 117.672L312.978 118.107ZM313.432 102.672H317.812V100.672H313.432V102.672ZM316.812 101.672V115.764H318.812V101.672H316.812ZM316.812 115.764C316.812 117.261 316.491 118.449 315.909 119.379L317.604 120.44C318.428 119.124 318.812 117.547 318.812 115.764H316.812ZM315.906 119.384C315.319 120.335 314.51 121.049 313.453 121.535L314.289 123.352C315.694 122.705 316.808 121.73 317.608 120.435L315.906 119.384ZM313.45 121.536C312.383 122.031 311.125 122.293 309.652 122.293V124.293C311.363 124.293 312.917 123.988 314.292 123.35L313.45 121.536ZM309.652 122.293C308.18 122.293 306.91 122.031 305.82 121.534L304.989 123.353C306.38 123.988 307.941 124.293 309.652 124.293V122.293ZM305.822 121.535C304.765 121.048 303.949 120.333 303.351 119.379L301.656 120.44C302.465 121.732 303.583 122.706 304.986 123.352L305.822 121.535ZM303.355 119.384C302.78 118.453 302.464 117.264 302.464 115.764H300.464C300.464 117.545 300.841 119.119 301.653 120.435L303.355 119.384ZM302.464 115.764V101.672H300.464V115.764H302.464ZM301.464 102.672H305.858V100.672H301.464V102.672ZM304.858 101.672V115.764H306.858V101.672H304.858ZM304.858 115.764C304.858 116.816 305.023 117.765 305.418 118.555L307.207 117.66C306.996 117.239 306.858 116.626 306.858 115.764H304.858ZM305.418 118.555C305.81 119.339 306.395 119.948 307.169 120.335L308.063 118.546C307.704 118.366 307.42 118.086 307.207 117.66L305.418 118.555ZM307.175 120.338C307.915 120.702 308.751 120.865 309.652 120.865V118.865C308.991 118.865 308.47 118.746 308.057 118.543L307.175 120.338ZM309.652 120.865C310.568 120.865 311.411 120.704 312.142 120.332L311.235 118.549C310.853 118.744 310.339 118.865 309.652 118.865V120.865ZM312.136 120.335C312.912 119.947 313.495 119.334 313.878 118.543L312.077 117.672C311.874 118.092 311.597 118.368 311.241 118.546L312.136 120.335ZM313.872 118.555C314.267 117.765 314.432 116.816 314.432 115.764H312.432C312.432 116.626 312.294 117.239 312.083 117.66L313.872 118.555ZM314.432 115.764V101.672H312.432V115.764H314.432ZM333.793 115.925V114.925H332.859L332.795 115.857L333.793 115.925ZM338.173 115.925L339.171 115.986L339.236 114.925H338.173V115.925ZM336.986 119.748L336.141 119.214L336.137 119.219L336.986 119.748ZM334.071 122.355L333.624 121.461L333.621 121.462L334.071 122.355ZM325.912 122.59L325.508 123.505L325.515 123.508L325.912 122.59ZM323.129 120.539L322.37 121.19L322.374 121.195L323.129 120.539ZM321.4 107.37L320.451 107.056L320.45 107.061L321.4 107.37ZM323.188 104.133L322.436 103.473L322.432 103.477L323.188 104.133ZM334.115 102.331L333.648 103.215L333.651 103.217L334.115 102.331ZM336.972 104.997L336.112 105.508L336.115 105.514L336.972 104.997ZM338.202 108.864V109.864H339.301L339.198 108.77L338.202 108.864ZM333.808 108.864L332.809 108.921L332.863 109.864H333.808V108.864ZM333.295 106.682L332.395 107.117L332.398 107.123L333.295 106.682ZM331.962 105.319L331.491 106.202L331.5 106.206L331.509 106.211L331.962 105.319ZM327.699 105.261L328.146 106.155L327.699 105.261ZM325.487 108.615L324.51 108.402L324.509 108.41L325.487 108.615ZM325.473 115.998L324.492 116.192L324.492 116.194L325.473 115.998ZM326.234 118.107L325.374 118.618L325.379 118.626L325.385 118.635L326.234 118.107ZM327.582 119.396L327.11 120.278L327.119 120.283L327.129 120.288L327.582 119.396ZM333.222 118.078L332.349 117.59L332.343 117.601L333.222 118.078ZM333.793 116.925H338.173V114.925H333.793V116.925ZM337.175 115.864C337.096 117.147 336.746 118.256 336.141 119.214L337.832 120.282C338.633 119.014 339.074 117.574 339.171 115.986L337.175 115.864ZM336.137 119.219C335.548 120.166 334.72 120.913 333.624 121.461L334.519 123.25C335.922 122.548 337.038 121.557 337.835 120.277L336.137 119.219ZM333.621 121.462C332.552 122.001 331.22 122.293 329.589 122.293V124.293C331.454 124.293 333.11 123.96 334.521 123.248L333.621 121.462ZM329.589 122.293C328.337 122.293 327.249 122.079 326.309 121.672L325.515 123.508C326.743 124.039 328.106 124.293 329.589 124.293V122.293ZM326.316 121.675C325.366 121.256 324.558 120.66 323.884 119.884L322.374 121.195C323.243 122.195 324.29 122.967 325.508 123.505L326.316 121.675ZM323.888 119.888C323.224 119.114 322.704 118.162 322.339 117.014L320.433 117.619C320.868 118.99 321.51 120.187 322.37 121.19L323.888 119.888ZM322.339 117.014C321.975 115.868 321.785 114.561 321.785 113.083H319.785C319.785 114.73 319.996 116.246 320.433 117.619L322.339 117.014ZM321.785 113.083V111.604H319.785V113.083H321.785ZM321.785 111.604C321.785 110.128 321.979 108.823 322.351 107.68L320.45 107.061C320.002 108.436 319.785 109.954 319.785 111.604H321.785ZM322.35 107.684C322.734 106.523 323.269 105.564 323.943 104.788L322.432 103.477C321.563 104.479 320.907 105.678 320.451 107.056L322.35 107.684ZM323.939 104.793C324.624 104.014 325.438 103.417 326.389 102.997L325.582 101.167C324.365 101.704 323.314 102.475 322.436 103.473L323.939 104.793ZM326.389 102.997C327.33 102.581 328.401 102.364 329.618 102.364V100.364C328.159 100.364 326.808 100.626 325.582 101.167L326.389 102.997ZM329.618 102.364C331.278 102.364 332.607 102.666 333.648 103.215L334.582 101.447C333.182 100.708 331.513 100.364 329.618 100.364V102.364ZM333.651 103.217C334.727 103.78 335.538 104.543 336.112 105.508L337.831 104.486C337.058 103.185 335.964 102.171 334.579 101.445L333.651 103.217ZM336.115 105.514C336.714 106.506 337.083 107.648 337.207 108.958L339.198 108.77C339.048 107.19 338.596 105.754 337.828 104.48L336.115 105.514ZM338.202 107.864H333.808V109.864H338.202V107.864ZM334.806 108.808C334.752 107.852 334.559 106.986 334.192 106.24L332.398 107.123C332.617 107.569 332.766 108.157 332.809 108.921L334.806 108.808ZM334.195 106.246C333.808 105.445 333.207 104.83 332.415 104.428L331.509 106.211C331.908 106.414 332.196 106.707 332.395 107.117L334.195 106.246ZM332.433 104.437C331.65 104.019 330.687 103.851 329.618 103.851V105.851C330.502 105.851 331.102 105.994 331.491 106.202L332.433 104.437ZM329.618 103.851C328.761 103.851 327.963 104.011 327.252 104.366L328.146 106.155C328.53 105.964 329.011 105.851 329.618 105.851V103.851ZM327.252 104.366C326.535 104.725 325.949 105.264 325.49 105.951L327.154 107.061C327.438 106.635 327.77 106.344 328.146 106.155L327.252 104.366ZM325.49 105.951C325.033 106.638 324.715 107.465 324.51 108.402L326.464 108.829C326.631 108.066 326.87 107.487 327.154 107.061L325.49 105.951ZM324.509 108.41C324.315 109.335 324.224 110.393 324.224 111.574H326.224C326.224 110.49 326.308 109.575 326.466 108.82L324.509 108.41ZM324.224 111.574V113.083H326.224V111.574H324.224ZM324.224 113.083C324.224 114.234 324.31 115.273 324.492 116.192L326.454 115.804C326.303 115.043 326.224 114.139 326.224 113.083H324.224ZM324.492 116.194C324.675 117.107 324.962 117.923 325.374 118.618L327.094 117.597C326.823 117.14 326.603 116.549 326.453 115.802L324.492 116.194ZM325.385 118.635C325.822 119.339 326.397 119.896 327.11 120.278L328.054 118.515C327.674 118.311 327.35 118.009 327.084 117.58L325.385 118.635ZM327.129 120.288C327.857 120.658 328.689 120.821 329.589 120.821V118.821C328.927 118.821 328.421 118.701 328.035 118.505L327.129 120.288ZM329.589 120.821C330.605 120.821 331.525 120.66 332.301 120.279L331.418 118.484C331.002 118.689 330.409 118.821 329.589 118.821V120.821ZM332.301 120.279C333.08 119.896 333.688 119.316 334.101 118.555L332.343 117.601C332.13 117.993 331.83 118.282 331.418 118.484L332.301 120.279ZM334.094 118.566C334.507 117.828 334.725 116.957 334.791 115.993L332.795 115.857C332.744 116.612 332.58 117.176 332.349 117.59L334.094 118.566ZM350.155 101.672H351.155V100.672H350.155V101.672ZM350.155 123V124H351.155V123H350.155ZM345.775 123H344.775V124H345.775V123ZM345.775 101.672V100.672H344.775V101.672H345.775ZM356.718 101.672H357.718V100.672H356.718V101.672ZM356.718 105.114V106.114H357.718V105.114H356.718ZM339.315 105.114H338.315V106.114H339.315V105.114ZM339.315 101.672V100.672H338.315V101.672H339.315ZM349.155 101.672V123H351.155V101.672H349.155ZM350.155 122H345.775V124H350.155V122ZM346.775 123V101.672H344.775V123H346.775ZM345.775 102.672H350.155V100.672H345.775V102.672ZM355.718 101.672V105.114H357.718V101.672H355.718ZM356.718 104.114H339.315V106.114H356.718V104.114ZM340.315 105.114V101.672H338.315V105.114H340.315ZM339.315 102.672H356.718V100.672H339.315V102.672ZM369.916 116.394L368.97 116.719L368.977 116.737L368.983 116.755L369.916 116.394ZM369.301 115.544L368.644 116.298L368.651 116.304L368.658 116.31L369.301 115.544ZM368.026 114.768L368.447 113.861L368.026 114.768ZM365.902 113.977L365.595 114.928L365.602 114.93L365.902 113.977ZM363.148 112.922L362.735 113.832L362.738 113.834L363.148 112.922ZM360.863 111.56L360.236 112.338L360.242 112.343L360.249 112.348L360.863 111.56ZM359.311 109.729L358.429 110.2L358.434 110.21L359.311 109.729ZM359.34 104.895L360.22 105.37L360.222 105.365L359.34 104.895ZM360.98 103.02L361.573 103.825L361.58 103.82L360.98 103.02ZM363.471 101.804L363.19 100.844L363.187 100.845L363.471 101.804ZM373.49 104.558L372.653 105.105L372.657 105.11L373.49 104.558ZM374.472 107.941V108.941H375.472V107.941H374.472ZM370.106 107.941H369.106V108.941H370.106V107.941ZM369.711 106.301L368.828 106.769L368.833 106.78L368.839 106.791L369.711 106.301ZM368.539 105.173L368.072 106.057L368.079 106.061L368.539 105.173ZM364.672 105.114L365.076 106.029L365.084 106.026L365.091 106.022L364.672 105.114ZM363.529 106.037L364.361 106.592L364.368 106.582L363.529 106.037ZM363.412 108.308L362.555 108.822L362.561 108.832L362.567 108.843L363.412 108.308ZM364.232 109.128L364.807 108.31L364.232 109.128ZM367.396 110.505L367.1 111.46L367.107 111.462L367.396 110.505ZM370.458 111.691L370.011 112.586L370.015 112.588L370.458 111.691ZM372.685 113.171L373.361 112.434L372.685 113.171ZM372.377 121.74L371.781 120.937L372.377 121.74ZM363.632 122.883L363.366 123.847L363.374 123.849L363.632 122.883ZM360.834 121.608L360.27 122.434L360.275 122.437L360.834 121.608ZM358.095 116.32V115.32H357.095V116.32H358.095ZM362.504 116.32H363.504V115.32H362.504V116.32ZM363.676 119.118L363.069 119.913L363.079 119.921L363.676 119.118ZM365.023 119.733L364.785 120.705L364.789 120.706L365.023 119.733ZM368.627 119.602L368.231 118.683L368.224 118.686L368.627 119.602ZM369.726 118.708L368.884 118.168L368.879 118.176L368.874 118.184L369.726 118.708ZM371.092 117.419C371.092 116.936 371.017 116.469 370.849 116.033L368.983 116.755C369.049 116.924 369.092 117.141 369.092 117.419H371.092ZM370.862 116.068C370.685 115.553 370.358 115.125 369.943 114.778L368.658 116.31C368.849 116.47 368.933 116.609 368.97 116.719L370.862 116.068ZM369.958 114.79C369.558 114.442 369.041 114.136 368.447 113.861L367.605 115.675C368.105 115.907 368.438 116.119 368.644 116.298L369.958 114.79ZM368.447 113.861C367.847 113.582 367.094 113.303 366.202 113.023L365.602 114.93C366.449 115.197 367.112 115.446 367.605 115.675L368.447 113.861ZM366.21 113.025C365.276 112.723 364.392 112.384 363.558 112.01L362.738 113.834C363.643 114.241 364.595 114.605 365.595 114.928L366.21 113.025ZM363.562 112.012C362.766 111.65 362.073 111.235 361.478 110.771L360.249 112.348C360.982 112.92 361.812 113.413 362.735 113.832L363.562 112.012ZM361.491 110.781C360.932 110.33 360.501 109.819 360.187 109.247L358.434 110.21C358.882 111.025 359.486 111.734 360.236 112.338L361.491 110.781ZM360.192 109.257C359.911 108.731 359.754 108.092 359.754 107.312H357.754C357.754 108.366 357.968 109.339 358.429 110.2L360.192 109.257ZM359.754 107.312C359.754 106.575 359.914 105.935 360.22 105.37L358.46 104.419C357.984 105.3 357.754 106.271 357.754 107.312H359.754ZM360.222 105.365C360.539 104.771 360.984 104.259 361.573 103.825L360.388 102.214C359.571 102.816 358.922 103.553 358.457 104.424L360.222 105.365ZM361.58 103.82C362.176 103.373 362.896 103.017 363.754 102.763L363.187 100.845C362.131 101.157 361.191 101.612 360.38 102.22L361.58 103.82ZM363.752 102.763C364.615 102.51 365.579 102.379 366.649 102.379V100.379C365.415 100.379 364.26 100.531 363.19 100.844L363.752 102.763ZM366.649 102.379C368.102 102.379 369.32 102.64 370.33 103.129L371.201 101.328C369.868 100.684 368.342 100.379 366.649 100.379V102.379ZM370.33 103.129C371.356 103.625 372.118 104.286 372.653 105.105L374.327 104.011C373.573 102.857 372.519 101.965 371.201 101.328L370.33 103.129ZM372.657 105.11C373.195 105.921 373.472 106.854 373.472 107.941H375.472C375.472 106.49 375.095 105.167 374.324 104.005L372.657 105.11ZM374.472 106.941H370.106V108.941H374.472V106.941ZM371.106 107.941C371.106 107.173 370.943 106.452 370.583 105.811L368.839 106.791C369.006 107.087 369.106 107.46 369.106 107.941H371.106ZM370.594 105.832C370.236 105.157 369.689 104.643 368.999 104.285L368.079 106.061C368.444 106.25 368.678 106.488 368.828 106.769L370.594 105.832ZM369.006 104.289C368.303 103.917 367.475 103.763 366.576 103.763V105.763C367.259 105.763 367.74 105.882 368.072 106.057L369.006 104.289ZM366.576 103.763C365.719 103.763 364.931 103.894 364.253 104.206L365.091 106.022C365.429 105.866 365.91 105.763 366.576 105.763V103.763ZM364.267 104.2C363.617 104.488 363.069 104.91 362.691 105.492L364.368 106.582C364.497 106.383 364.711 106.19 365.076 106.029L364.267 104.2ZM362.697 105.482C362.329 106.035 362.148 106.66 362.148 107.326H364.148C364.148 107.036 364.222 106.801 364.361 106.592L362.697 105.482ZM362.148 107.326C362.148 107.858 362.28 108.365 362.555 108.822L364.27 107.793C364.193 107.665 364.148 107.517 364.148 107.326H362.148ZM362.567 108.843C362.84 109.273 363.217 109.636 363.657 109.946L364.807 108.31C364.525 108.112 364.356 107.928 364.257 107.773L362.567 108.843ZM363.657 109.946C364.09 110.25 364.6 110.521 365.174 110.766L365.957 108.926C365.476 108.721 365.097 108.514 364.807 108.31L363.657 109.946ZM365.174 110.766C365.739 111.007 366.383 111.238 367.101 111.46L367.692 109.55C367.024 109.342 366.446 109.134 365.957 108.926L365.174 110.766ZM367.107 111.462C368.227 111.801 369.193 112.177 370.011 112.586L370.905 110.797C369.965 110.327 368.89 109.912 367.686 109.548L367.107 111.462ZM370.015 112.588C370.837 112.994 371.496 113.437 372.008 113.908L373.361 112.434C372.682 111.811 371.856 111.267 370.901 110.795L370.015 112.588ZM372.008 113.908C372.509 114.367 372.873 114.874 373.116 115.431L374.949 114.631C374.586 113.801 374.052 113.069 373.361 112.434L372.008 113.908ZM373.116 115.431C373.355 115.98 373.486 116.626 373.486 117.39H375.486C375.486 116.395 375.315 115.469 374.949 114.631L373.116 115.431ZM373.486 117.39C373.486 118.185 373.332 118.86 373.048 119.437L374.841 120.322C375.279 119.435 375.486 118.45 375.486 117.39H373.486ZM373.048 119.437C372.759 120.022 372.343 120.52 371.781 120.937L372.973 122.543C373.779 121.945 374.407 121.203 374.841 120.322L373.048 119.437ZM371.781 120.937C371.21 121.362 370.509 121.698 369.663 121.934L370.199 123.861C371.246 123.569 372.177 123.134 372.973 122.543L371.781 120.937ZM369.663 121.934C368.817 122.169 367.85 122.293 366.752 122.293V124.293C367.998 124.293 369.149 124.153 370.199 123.861L369.663 121.934ZM366.752 122.293C365.785 122.293 364.831 122.168 363.889 121.917L363.374 123.849C364.483 124.145 365.61 124.293 366.752 124.293V122.293ZM363.898 121.919C362.972 121.663 362.139 121.282 361.393 120.779L360.275 122.437C361.209 123.067 362.241 123.536 363.366 123.847L363.898 121.919ZM361.398 120.782C360.694 120.303 360.135 119.694 359.712 118.947L357.972 119.933C358.545 120.945 359.313 121.781 360.27 122.434L361.398 120.782ZM359.712 118.947C359.314 118.245 359.095 117.381 359.095 116.32H357.095C357.095 117.662 357.374 118.878 357.972 119.933L359.712 118.947ZM358.095 117.32H362.504V115.32H358.095V117.32ZM361.504 116.32C361.504 117.082 361.621 117.791 361.899 118.413L363.725 117.597C363.592 117.3 363.504 116.887 363.504 116.32H361.504ZM361.899 118.413C362.166 119.012 362.555 119.521 363.069 119.913L364.282 118.323C364.054 118.149 363.867 117.915 363.725 117.597L361.899 118.413ZM363.079 119.921C363.579 120.293 364.154 120.55 364.785 120.705L365.262 118.762C364.858 118.663 364.534 118.51 364.272 118.316L363.079 119.921ZM364.789 120.706C365.404 120.854 366.06 120.924 366.752 120.924V118.924C366.194 118.924 365.698 118.867 365.257 118.761L364.789 120.706ZM366.752 120.924C367.597 120.924 368.372 120.806 369.03 120.517L368.224 118.686C367.905 118.827 367.43 118.924 366.752 118.924V120.924ZM369.023 120.52C369.669 120.241 370.214 119.822 370.577 119.232L368.874 118.184C368.768 118.355 368.581 118.532 368.231 118.683L369.023 120.52ZM370.567 119.248C370.921 118.696 371.092 118.077 371.092 117.419H369.092C369.092 117.718 369.019 117.958 368.884 118.168L370.567 119.248Z" fill="black"/>
</svg>
