<svg width="154" height="43" viewBox="0 0 154 43" fill="none" xmlns="http://www.w3.org/2000/svg">
<rect width="154" height="43" fill="black"/>
<path d="M25.2808 29.5034L29.6704 10.9609H32.1226L32.6826 14.0488L28.0054 33H25.3716L25.2808 29.5034ZM23.0254 10.9609L26.6582 29.5034L26.3555 33H23.4189L18.5298 10.9609H23.0254ZM36.5425 29.4277L40.1299 10.9609H44.6255L39.7515 33H36.8149L36.5425 29.4277ZM33.5 10.9609L37.9199 29.5791L37.7988 33H35.165L30.4575 14.0337L31.063 10.9609H33.5ZM65.1963 21.4658V22.5103C65.1963 24.1854 64.9692 25.689 64.5151 27.021C64.061 28.353 63.4202 29.4883 62.5928 30.4268C61.7653 31.3551 60.7764 32.0666 59.626 32.561C58.4857 33.0555 57.2192 33.3027 55.8267 33.3027C54.4442 33.3027 53.1777 33.0555 52.0273 32.561C50.887 32.0666 49.8981 31.3551 49.0605 30.4268C48.223 29.4883 47.5721 28.353 47.1079 27.021C46.6538 25.689 46.4268 24.1854 46.4268 22.5103V21.4658C46.4268 19.7806 46.6538 18.277 47.1079 16.9551C47.562 15.623 48.2028 14.4878 49.0303 13.5493C49.8678 12.6108 50.8568 11.8944 51.9971 11.3999C53.1475 10.9054 54.4139 10.6582 55.7964 10.6582C57.189 10.6582 58.4554 10.9054 59.5957 11.3999C60.7461 11.8944 61.735 12.6108 62.5625 13.5493C63.4001 14.4878 64.0459 15.623 64.5 16.9551C64.9642 18.277 65.1963 19.7806 65.1963 21.4658ZM60.6099 22.5103V21.4355C60.6099 20.265 60.5039 19.2357 60.292 18.3477C60.0801 17.4596 59.7673 16.7129 59.3535 16.1074C58.9398 15.502 58.4352 15.0479 57.8398 14.7451C57.2445 14.4323 56.5633 14.2759 55.7964 14.2759C55.0295 14.2759 54.3483 14.4323 53.7529 14.7451C53.1676 15.0479 52.6681 15.502 52.2544 16.1074C51.8507 16.7129 51.543 17.4596 51.3311 18.3477C51.1191 19.2357 51.0132 20.265 51.0132 21.4355V22.5103C51.0132 23.6707 51.1191 24.7 51.3311 25.5981C51.543 26.4862 51.8558 27.238 52.2695 27.8535C52.6833 28.459 53.1878 28.9181 53.7832 29.231C54.3786 29.5438 55.0597 29.7002 55.8267 29.7002C56.5936 29.7002 57.2747 29.5438 57.8701 29.231C58.4655 28.9181 58.965 28.459 59.3687 27.8535C59.7723 27.238 60.0801 26.4862 60.292 25.5981C60.5039 24.7 60.6099 23.6707 60.6099 22.5103ZM70.5396 10.9609H74.3843L80.0454 27.1421L85.7065 10.9609H89.5513L81.5894 33H78.5015L70.5396 10.9609ZM68.4658 10.9609H72.2954L72.9917 26.7334V33H68.4658V10.9609ZM87.7954 10.9609H91.6401V33H87.0991V26.7334L87.7954 10.9609ZM104.854 14.73L98.8604 33H94.0317L102.221 10.9609H105.293L104.854 14.73ZM109.834 33L103.825 14.73L103.341 10.9609H106.444L114.678 33H109.834ZM109.562 24.7959V28.353H97.9219V24.7959H109.562ZM134.659 10.9609V33H130.118L121.263 18.2266V33H116.722V10.9609H121.263L130.133 25.7495V10.9609H134.659Z" fill="white"/>
</svg>
